<?xml version="1.0" encoding="iso-8859-1"?>
<!-- Generator: Adobe Illustrator 18.1.1, SVG Export Plug-In . SVG Version: 6.00 Build 0)  -->
<svg version="1.1" id="Capa_1" xmlns="http://www.w3.org/2000/svg" xmlns:xlink="http://www.w3.org/1999/xlink" x="0px" y="0px"
	 viewBox="0 0 450.486 450.486" style="enable-background:new 0 0 450.486 450.486;" xml:space="preserve">
<g>
	<path style="fill:#010002;" d="M365.843,171.744c-0.984-0.195-2.113-0.309-3.398-0.309c-0.008,0-0.024,0-0.033,0
		c-0.398-0.024-0.788-0.089-1.171-0.146c-2.325-0.333-4.715-0.333-7.072,0c-0.382,0.057-0.764,0.122-0.658,0.13H101.209
		c-0.528,0-1.049,0.057-1.544,0.171l-0.089-0.016c-2.243-0.301-4.503-0.585-6.844-0.585C41.602,170.988,0,212.59,0,263.735
		c0,22.272,8.161,43.781,23.036,60.818l7.243,39.107c4.007,21.663,24.402,38.627,46.43,38.627h7.104
		c21.256,0,44.39-15.331,52.673-34.904c1.748-4.137-0.187-8.909-4.316-10.648c-4.121-1.756-8.909,0.179-10.648,4.316
		c-5.731,13.542-22.988,24.979-37.7,24.979h-7.104c-13.965,0-27.905-11.599-30.442-25.321l-7.649-41.35
		c-0.276-1.504-0.975-2.894-2.008-4.016c-13.12-14.298-20.346-32.628-20.346-51.6c0-42.171,34.311-76.49,76.474-76.49
		c1.593,0,3.121,0.228,4.65,0.439c0.992,0.146,1.983,0.268,2.983,0.382c1.065,0.114,2.113-0.041,3.13-0.382l250.506-0.016
		c0.845-0.049,1.666-0.154,2.487-0.276c0.813-0.114,1.626-0.114,2.439,0c0.821,0.122,1.65,0.228,2.991,0.293
		c0.008,0,0.374,0,0.756,0.008c0.431,0.114,0.862,0.179,1.317,0.219c40.033,3.308,70.223,35.912,70.223,75.823
		c0,19.826-7.657,38.668-21.573,53.071c-1.105,1.138-1.853,2.577-2.146,4.137l-7.495,39.757
		c-2.585,13.721-16.574,25.321-30.547,25.321h-7.112c-14.705,0-31.97-11.437-37.692-24.987c-1.748-4.129-6.527-6.064-10.657-4.316
		c-4.137,1.748-6.064,6.519-4.316,10.648c8.275,19.574,31.409,34.912,52.665,34.912h7.112c22.02,0,42.456-16.948,46.52-38.57
		l7.056-37.416c15.786-17.208,24.443-39.326,24.443-62.557C450.469,215.459,414.118,176.003,365.843,171.744z"/>
	<path style="fill:#010002;" d="M142.746,339.843h163.685c4.495,0,8.129-3.633,8.129-8.129s-3.633-8.129-8.129-8.129H142.746
		c-4.495,0-8.129,3.633-8.129,8.129S138.251,339.843,142.746,339.843z"/>
	<path style="fill:#010002;" d="M80.432,314.88h29.848c4.495,0,8.129-3.633,8.129-8.129v-18.249h18.224
		c4.495,0,8.129-3.633,8.129-8.129v-29.807c0-4.495-3.633-8.129-8.129-8.129h-18.216v-18.232c0-4.495-3.633-8.129-8.129-8.129H80.44
		c-4.495,0-8.129,3.633-8.129,8.129v18.232H54.096c-4.495,0-8.129,3.633-8.129,8.129v29.807c0,4.495,3.633,8.129,8.129,8.129h18.216
		v18.249C72.304,311.238,75.945,314.88,80.432,314.88z M62.216,272.237v-13.55h18.216c4.495,0,8.129-3.633,8.129-8.129v-18.232
		h13.591v18.232c0,4.495,3.633,8.129,8.129,8.129h18.224v13.55h-18.216c-4.495,0-8.129,3.633-8.129,8.129v18.249H88.569v-18.249
		c0-4.495-3.633-8.129-8.129-8.129H62.216z"/>
	<path style="fill:#010002;" d="M342.27,208.867c-12.884,0-23.37,10.494-23.37,23.394c0,12.9,10.486,23.394,23.37,23.394
		c12.9,0,23.394-10.494,23.394-23.394C365.664,219.361,355.17,208.867,342.27,208.867z M342.27,239.39
		c-3.918,0-7.113-3.203-7.113-7.137c0-3.934,3.195-7.137,7.113-7.137c3.934,0,7.137,3.203,7.137,7.137
		C349.407,236.195,346.212,239.39,342.27,239.39z"/>
	<path style="fill:#010002;" d="M342.27,269.222c-12.884,0-23.37,10.494-23.37,23.386c0,12.892,10.486,23.386,23.37,23.386
		c12.9,0,23.394-10.494,23.394-23.386C365.664,279.716,355.17,269.222,342.27,269.222z M342.27,299.736
		c-3.918,0-7.113-3.203-7.113-7.129c0-3.926,3.195-7.129,7.113-7.129c3.934,0,7.137,3.203,7.137,7.129
		C349.407,296.542,346.212,299.736,342.27,299.736z"/>
	<path style="fill:#010002;" d="M301.017,239.048c-12.908,0-23.402,10.494-23.402,23.386c0,12.9,10.494,23.394,23.402,23.394
		c12.884,0,23.37-10.494,23.37-23.394C324.387,249.542,313.901,239.048,301.017,239.048z M301.017,269.563
		c-3.934,0-7.145-3.203-7.145-7.137c0-3.926,3.211-7.129,7.145-7.129c3.926,0,7.112,3.203,7.112,7.129
		C308.13,266.369,304.943,269.563,301.017,269.563z"/>
	<path style="fill:#010002;" d="M383.563,285.82c12.884,0,23.37-10.494,23.37-23.394c0-12.892-10.486-23.386-23.37-23.386
		c-12.908,0-23.41,10.494-23.41,23.386C360.161,275.326,370.663,285.82,383.563,285.82z M383.563,255.306
		c3.918,0,7.113,3.203,7.113,7.129c0,3.934-3.195,7.137-7.113,7.137c-3.942,0-7.153-3.203-7.153-7.137
		C376.418,258.5,379.621,255.306,383.563,255.306z"/>
	<path style="fill:#010002;" d="M220.317,160.697c0.284,0.033,0.569,0.049,0.862,0.049c4.105,0,7.625-3.105,8.072-7.267
		c0.203-1.87,5.406-45.674,46.113-45.674c17.761,0,31.124-5.219,39.716-15.501c12.973-15.55,9.34-36.546,9.185-37.44
		c-0.805-4.406-5.032-7.324-9.413-6.535c-4.406,0.78-7.348,4.991-6.592,9.397c0.024,0.146,2.39,14.607-5.731,24.231
		c-5.357,6.373-14.501,9.592-27.166,9.592c-44.382,0-60.143,39.415-62.281,60.249C212.627,156.251,215.871,160.226,220.317,160.697z
		"/>
</g>
<g>
</g>
<g>
</g>
<g>
</g>
<g>
</g>
<g>
</g>
<g>
</g>
<g>
</g>
<g>
</g>
<g>
</g>
<g>
</g>
<g>
</g>
<g>
</g>
<g>
</g>
<g>
</g>
<g>
</g>
</svg>
